# xmcd
#
# Track frame offsets:
#	150
#	13273
#	25769
#	44231
#	54053
#	67469
#	79308
#	91734
#	100500
#	116942
#	133618
#	144567
#	161092
#	175636
#	190102
#	206081
#	221704
#
# Disc length: 3133 seconds
#
# Revision: 1
# Processed by: cddbd v1.4PL0 Copyright (c) Steve Scherf et al.
# Submitted via: audiograbber 1.82.02
#
DISCID=f80c3b11
DTITLE=Kenny Rogers - A&E: Live By Request
DYEAR=2001
DGENRE=Country
TTITLE0=Islands in the Stream
TTITLE1=Daytime Friends
TTITLE2=She Believes in Me
TTITLE3=Ruby
TTITLE4=Love Will Turn You Around
TTITLE5=Through The Years
TTITLE6=Greatest
TTITLE7=Love or Something Like It
TTITLE8=Through the Years
TTITLE9=Lucille
TTITLE10=Don't Fall in Love With a Dreamer
TTITLE11=Coward of the County
TTITLE12=Lady
TTITLE13=Gambler
TTITLE14=We've Got Tonite
TTITLE15=You Decorated My Life
TTITLE16=Slow Dance More
EXTD=This tracklist is without the phoned-in requests (Songs Only).
EXTT0=
EXTT1=
EXTT2=
EXTT3=
EXTT4=
EXTT5=
EXTT6=
EXTT7=
EXTT8=
EXTT9=
EXTT10=
EXTT11=
EXTT12=
EXTT13=
EXTT14=
EXTT15=
EXTT16=
PLAYORDER=
